<svg xmlns="http://www.w3.org/2000/svg" xmlns:xlink="http://www.w3.org/1999/xlink" width="65" height="65" viewBox="0 0 65 65"><defs><style>.a{fill:#0dc1f7;}.b{filter:url(#a);}</style><filter id="a" x="0" y="0" width="65" height="65" filterUnits="userSpaceOnUse"><feOffset dy="3" input="SourceAlpha"/><feGaussianBlur stdDeviation="3" result="b"/><feFlood flood-opacity="0.161"/><feComposite operator="in" in2="b"/><feComposite in="SourceGraphic"/></filter></defs><g class="b" transform="matrix(1, 0, 0, 1, 0, 0)"><path class="a" d="M26.477,3A23.5,23.5,0,1,0,50,26.5,23.489,23.489,0,0,0,26.477,3ZM26.5,45.3A18.8,18.8,0,1,1,45.3,26.5,18.795,18.795,0,0,1,26.5,45.3Zm8.225-21.15A3.525,3.525,0,1,0,31.2,20.625,3.52,3.52,0,0,0,34.725,24.15Zm-16.45,0a3.525,3.525,0,1,0-3.525-3.525A3.52,3.52,0,0,0,18.275,24.15ZM26.5,39.425A12.916,12.916,0,0,0,38.509,31.2H14.491A12.916,12.916,0,0,0,26.5,39.425Z" transform="translate(6 3)"/></g></svg>