<svg xmlns="http://www.w3.org/2000/svg" width="40.286" height="47" viewBox="0 0 40.286 47"><defs><style>.a{fill:#0dc1f7;}</style></defs><path class="a" d="M37.379,2.25a7.42,7.42,0,0,0-5.571,12.306,7.332,7.332,0,0,0,4.008,2.36v4.522L24.643,27.25,13.48,21.438V16.917a7.411,7.411,0,1,0-7.144-2.36,7.332,7.332,0,0,0,4.008,2.36v6.022a.734.734,0,0,0,.409.661L23.08,29.978v4.606a7.409,7.409,0,1,0,7.134,2.36,7.332,7.332,0,0,0-4.008-2.36V29.978L38.533,23.6a.734.734,0,0,0,.409-.661V16.917A7.418,7.418,0,0,0,37.379,2.25ZM7.626,9.667a4.28,4.28,0,1,1,4.28,4.28A4.285,4.285,0,0,1,7.626,9.667Zm21.3,32.166a4.28,4.28,0,1,1-4.28-4.28A4.285,4.285,0,0,1,28.923,41.833Zm8.456-27.875a4.28,4.28,0,1,1,4.28-4.28A4.285,4.285,0,0,1,37.379,13.958Z" transform="translate(-4.5 -2.25)"/></svg>