<svg xmlns="http://www.w3.org/2000/svg" width="47" height="47" viewBox="0 0 47 47"><defs><style>.a{fill:#0dc1f7;}</style></defs><path class="a" d="M20.54,12,14.194,1.427A2.937,2.937,0,0,0,11.675,0H1.471a1.469,1.469,0,0,0-1.2,2.311L10.482,16.9A19,19,0,0,1,20.54,12ZM45.528,0h-10.2a2.937,2.937,0,0,0-2.519,1.427L26.46,12a19,19,0,0,1,10.057,4.9L46.732,2.311A1.469,1.469,0,0,0,45.528,0ZM23.5,14.688A16.156,16.156,0,1,0,39.656,30.844,16.156,16.156,0,0,0,23.5,14.688Zm8.493,14.436-3.482,3.393.823,4.794a1.054,1.054,0,0,1-1.528,1.11L23.5,36.157,19.195,38.42a1.054,1.054,0,0,1-1.528-1.11l.823-4.794-3.482-3.393a1.054,1.054,0,0,1,.583-1.8l4.813-.7,2.151-4.362a1.056,1.056,0,0,1,1.892,0L26.6,26.624l4.813.7a1.054,1.054,0,0,1,.583,1.8Z"/></svg>